<svg width="24" height="22" viewBox="0 0 24 22" fill="none" xmlns="http://www.w3.org/2000/svg">
<path d="M22 13H21C21 9.13001 17.87 6.00001 14 6.00001H13V4.73001C13.3041 4.55443 13.5566 4.30187 13.7322 3.99773C13.9077 3.6936 14.0001 3.3486 14 2.99744C13.9999 2.64628 13.9074 2.30134 13.7317 1.99729C13.556 1.69324 13.3033 1.44082 12.9991 1.26539C12.6949 1.08997 12.3499 0.997731 11.9987 0.997956C11.6476 0.998181 11.3026 1.09086 10.9987 1.26667C10.6947 1.44249 10.4424 1.69524 10.2671 1.99951C10.0917 2.30378 9.99964 2.64885 10 3.00001C10 3.74001 10.4 4.39001 11 4.73001V6.00001H10C6.13 6.00001 3 9.13001 3 13H2C1.45 13 1 13.45 1 14V17C1 17.55 1.45 18 2 18H3V19C3 19.5304 3.21071 20.0391 3.58579 20.4142C3.96086 20.7893 4.46957 21 5 21H19C20.11 21 21 20.11 21 19V18H22C22.55 18 23 17.55 23 17V14C23 13.45 22.55 13 22 13ZM8.5 12.5L10.86 14.86L10.1251 15.5L8.5 13.7907L6.75006 15.5L6.14 14.86L8.5 12.5ZM15.5 12.5L17.86 14.86L17.2501 15.5L15.5 14L13.8751 15.5L13.14 14.86L15.5 12.5Z" stroke="#121212" stroke-width="1.5"/>
</svg>
